<?xml version="1.0" encoding="UTF-8" standalone="no"?>
<!-- Created with Inkscape (http://www.inkscape.org/) -->

<svg
   width="1920"
   height="1080"
   viewBox="0 0 1920 1080"
   version="1.1"
   id="svg1"
   inkscape:version="1.3 (0e150ed6c4, 2023-07-21)"
   sodipodi:docname="Map.svg"
   xmlns:inkscape="http://www.inkscape.org/namespaces/inkscape"
   xmlns:sodipodi="http://sodipodi.sourceforge.net/DTD/sodipodi-0.dtd"
   xmlns="http://www.w3.org/2000/svg"
   xmlns:svg="http://www.w3.org/2000/svg">
  <sodipodi:namedview
     id="namedview1"
     pagecolor="#ffffff"
     bordercolor="#000000"
     borderopacity="0.25"
     inkscape:showpageshadow="2"
     inkscape:pageopacity="0.0"
     inkscape:pagecheckerboard="0"
     inkscape:deskcolor="#d1d1d1"
     inkscape:document-units="mm"
     showgrid="true"
     inkscape:zoom="0.5385886"
     inkscape:cx="2036.8051"
     inkscape:cy="414.97351"
     inkscape:window-width="3840"
     inkscape:window-height="2054"
     inkscape:window-x="-11"
     inkscape:window-y="-11"
     inkscape:window-maximized="1"
     inkscape:current-layer="layer1">
    <inkscape:grid
       id="grid1"
       units="mm"
       originx="0"
       originy="0"
       spacingx="0.99999998"
       spacingy="1"
       empcolor="#0099e5"
       empopacity="0.30196078"
       color="#0099e5"
       opacity="0.14901961"
       empspacing="20"
       dotted="false"
       gridanglex="30"
       gridanglez="30"
       visible="true" />
  </sodipodi:namedview>
  <defs
     id="defs1" />
  <g
     inkscape:label="Layer 1"
     inkscape:groupmode="layer"
     id="layer1">
    <path
       id="rect4"
       style="fill:#1a1a1a;stroke-width:2.02936"
       d="M 0,40 H 20 V 1080 H 0 Z" />
    <path
       id="rect5"
       style="fill:#1a1a1a;stroke-width:1.7859"
       d="m 20,1060 h 1900 v 20 H 20 Z" />
    <path
       id="rect6"
       style="fill:#1a1a1a;stroke-width:1.75748"
       d="m 1900,0 h 20 v 1060 h -20 z" />
    <path
       id="rect7"
       style="fill:#1a1a1a;stroke-width:1.79569"
       d="M 0,0 H 1900 V 20 H 0 Z" />
    <path
       id="rect8"
       style="fill:#1a1a1a;stroke-width:1.75748"
       d="M 0,20 H 20 V 40 H 0 Z" />
    <path
       id="rect9"
       style="fill:#1a1a1a;stroke-width:1.71512"
       d="m 20,920 h 400 v 20 H 20 Z" />
    <path
       id="rect10"
       style="fill:#1a1a1a;stroke-width:2.02936"
       d="m 100,840 h 20 v 80 h -20 z" />
    <path
       id="rect12"
       style="fill:#1a1a1a;stroke-width:2.02936"
       d="m 200,840 h 20 v 80 h -20 z" />
    <path
       id="rect13"
       style="fill:#1a1a1a;stroke-width:2.02936"
       d="m 300,840 h 20 v 80 h -20 z" />
    <path
       id="rect14"
       style="fill:#1a1a1a;stroke-width:1.75748"
       d="m 400,780 h 20 v 140 h -20 z" />
    <path
       id="rect15"
       style="fill:#1a1a1a;stroke-width:1.75748"
       d="m 400,660 h 20 v 60 h -20 z" />
    <path
       id="rect16"
       style="fill:#1a1a1a;stroke-width:1.75748"
       d="m 100,660 h 300 v 20 H 100 Z" />
    <path
       id="rect17"
       style="fill:#1a1a1a;stroke-width:1.75748"
       d="m 240,540 h 20 v 120 h -20 z" />
    <path
       id="rect18"
       style="fill:#1a1a1a;stroke-width:1.75748"
       d="m 20,540 h 220 v 20 H 20 Z" />
    <path
       id="rect19"
       style="fill:#1a1a1a;stroke-width:1.75748"
       d="m 160,20 h 20 v 220 h -20 z" />
    <path
       id="rect20"
       style="fill:#1a1a1a;stroke-width:1.75748"
       d="m 120,240 h 60 v 20 h -60 z" />
    <path
       id="rect21"
       style="fill:#1a1a1a;stroke-width:1.75748"
       d="m 120,300 h 60 v 20 h -60 z" />
    <path
       id="rect22"
       style="fill:#1a1a1a;stroke-width:1.75748"
       d="m 160,320 h 20 v 100 h -20 z" />
    <path
       id="rect23"
       style="fill:#1a1a1a;stroke-width:1.75748"
       d="m 20,420 h 160 v 20 H 20 Z" />
    <path
       id="rect24"
       style="fill:#1a1a1a;stroke-width:1.75748"
       d="m 280,20 h 20 v 420 h -20 z" />
    <path
       id="rect25"
       style="fill:#1a1a1a;stroke-width:1.75748"
       d="m 300,420 h 260 v 20 H 300 Z" />
    <path
       id="rect26"
       style="fill:#1a1a1a;stroke-width:1.75748"
       d="m 540,440 h 20 v 500 h -20 z" />
    <path
       id="rect27"
       style="fill:#1a1a1a;stroke-width:1.75748"
       d="m 1680,120 h 220 v 20 h -220 z" />
    <path
       id="rect28"
       style="fill:#1a1a1a;stroke-width:1.75748"
       d="m 1680,100 h 20 v 20 h -20 z" />
    <path
       id="rect29"
       style="fill:#1a1a1a;stroke-width:1.75748"
       d="m 1680,20 h 20 v 20 h -20 z" />
    <path
       id="rect30"
       style="fill:#1a1a1a;stroke-width:1.75748"
       d="m 1500,840 h 260 v 20 h -260 z" />
    <path
       id="rect31"
       style="fill:#1a1a1a;stroke-width:1.75748"
       d="m 1740,380 h 20 v 460 h -20 z" />
    <path
       id="rect32"
       style="fill:#1a1a1a;stroke-width:1.75748"
       d="m 1740,360 h 160 v 20 h -160 z" />
    <path
       id="rect33"
       style="fill:#1a1a1a;stroke-width:1.75748"
       d="m 1760,440 h 40 v 20 h -40 z" />
    <path
       id="rect34"
       style="fill:#1a1a1a;stroke-width:1.75748"
       d="m 1760,520 h 40 v 20 h -40 z" />
    <path
       id="rect35"
       style="fill:#1a1a1a;stroke-width:1.75748"
       d="m 1760,600 h 40 v 20 h -40 z" />
    <path
       id="rect36"
       style="fill:#1a1a1a;stroke-width:1.75748"
       d="m 1760,680 h 40 v 20 h -40 z" />
    <path
       id="rect37"
       style="fill:#1a1a1a;stroke-width:1.75748"
       d="m 1760,760 h 40 v 20 h -40 z" />
    <path
       id="rect38"
       style="fill:#1a1a1a;stroke-width:1.75748"
       d="m 1760,840 h 40 v 20 h -40 z" />
    <path
       id="rect39"
       style="fill:#1a1a1a;stroke-width:1.75748"
       d="m 1120,120 h 400 v 80 h -400 z" />
    <path
       id="rect40"
       style="fill:#1a1a1a;stroke-width:1.75748"
       d="m 540,120 h 420 v 80 H 540 Z" />
    <path
       id="rect41"
       style="fill:#1a1a1a;stroke-width:1.75748"
       d="m 1520,340 h 20 v 140 h -20 z" />
    <path
       id="rect42"
       style="fill:#1a1a1a;stroke-width:1.75748"
       d="m 1520,560 h 20 v 140 h -20 z" />
    <path
       id="rect43"
       style="fill:#1a1a1a;stroke-width:1.92522"
       d="m 1400,680 h 120 v 20 h -120 z" />
    <path
       id="rect44"
       style="fill:#1a1a1a;stroke-width:1.75748"
       d="m 1400,340 h 120 v 20 h -120 z" />
    <path
       id="rect45"
       style="fill:#1a1a1a;stroke-width:1.75748"
       d="m 1180,680 h 140 v 20 h -140 z" />
    <path
       id="rect46"
       style="fill:#1a1a1a;stroke-width:1.75748"
       d="m 1180,560 h 20 v 120 h -20 z" />
    <path
       id="rect47"
       style="fill:#1a1a1a;stroke-width:1.75748"
       d="m 1180,340 h 20 v 140 h -20 z" />
    <path
       id="rect48"
       style="fill:#1a1a1a;stroke-width:1.75748"
       d="m 1200,340 h 120 v 20 h -120 z" />
    <path
       id="rect49"
       style="fill:#1a1a1a;stroke-width:1.75748"
       d="m 1040,840 h 220 v 20 h -220 z" />
    <path
       id="rect50"
       style="fill:#1a1a1a;stroke-width:1.75748"
       d="m 1040,740 h 20 v 100 h -20 z" />
    <path
       id="rect51"
       style="fill:#1a1a1a;stroke-width:1.75748"
       d="m 760,740 h 280 v 20 H 760 Z" />
    <path
       id="rect52"
       style="fill:#1a1a1a;stroke-width:1.75748"
       d="m 740,740 h 20 v 120 h -20 z" />
    <path
       id="rect53"
       style="fill:#1a1a1a;stroke-width:1.75748"
       d="m 660,840 h 80 v 20 h -80 z" />
    <path
       id="rect54"
       style="fill:#1a1a1a;stroke-width:1.75748"
       d="m 660,420 h 80 v 20 h -80 z" />
    <path
       id="rect55"
       style="fill:#1a1a1a;stroke-width:1.75748"
       d="m 720,440 h 20 v 100 h -20 z" />
    <path
       id="rect56"
       style="fill:#1a1a1a;stroke-width:1.75748"
       d="m 740,520 h 280 v 20 H 740 Z" />
    <path
       id="rect57"
       style="fill:#1a1a1a;stroke-width:1.75748"
       d="m 1000,420 h 20 v 100 h -20 z" />
    <path
       id="rect58"
       style="fill:#1a1a1a;stroke-width:1.75748"
       d="m 1020,420 h 60 v 20 h -60 z" />
  </g>
</svg>
