<?xml version="1.0" encoding="UTF-8" standalone="no"?>
<!-- Created with Inkscape (http://www.inkscape.org/) -->

<svg
   width="1920"
   height="1080"
   viewBox="0 0 1920 1080"
   version="1.1"
   id="svg1"
   inkscape:version="1.3 (0e150ed6c4, 2023-07-21)"
   sodipodi:docname="Map.svg"
   xmlns:inkscape="http://www.inkscape.org/namespaces/inkscape"
   xmlns:sodipodi="http://sodipodi.sourceforge.net/DTD/sodipodi-0.dtd"
   xmlns="http://www.w3.org/2000/svg"
   xmlns:svg="http://www.w3.org/2000/svg">
  <sodipodi:namedview
     id="namedview1"
     pagecolor="#ffffff"
     bordercolor="#000000"
     borderopacity="0.25"
     inkscape:showpageshadow="2"
     inkscape:pageopacity="0.0"
     inkscape:pagecheckerboard="0"
     inkscape:deskcolor="#d1d1d1"
     inkscape:document-units="mm"
     showgrid="true"
     inkscape:zoom="0.2692943"
     inkscape:cx="1737.8756"
     inkscape:cy="815.09339"
     inkscape:window-width="1920"
     inkscape:window-height="1111"
     inkscape:window-x="-9"
     inkscape:window-y="-9"
     inkscape:window-maximized="1"
     inkscape:current-layer="layer1">
    <inkscape:grid
       id="grid1"
       units="mm"
       originx="0"
       originy="0"
       spacingx="0.99999998"
       spacingy="1"
       empcolor="#0099e5"
       empopacity="0.30196078"
       color="#0099e5"
       opacity="0.14901961"
       empspacing="20"
       dotted="false"
       gridanglex="30"
       gridanglez="30"
       visible="true" />
  </sodipodi:namedview>
  <defs
     id="defs1" />
  <g
     inkscape:label="Layer 1"
     inkscape:groupmode="layer"
     id="layer1">
    <path
       id="path1"
       style="fill:#000000;stroke-width:1.75748"
       d="M 0 0 L 0 40 L 20 40 L 20 20 L 1860 20 L 1860 0 L 0 0 z M 0 220 L 0 960 L 20 960 L 20 220 L 0 220 z " />
    <path
       style="fill:#000000;stroke-width:1.75748"
       d="M 1900,0 V 1060 H 60 v 20 H 1920 V 0 Z"
       id="path2" />
    <path
       style="fill:#000000;stroke-width:1.75748"
       d="M 26.914215,900 H 100 v -80 h 20 v 80 h 80 v -80 h 20 v 80 h 80 v -80 h 20 v 80 h 80 v -80 h 20 v 80 20 H 20 v -20 z"
       id="path3" />
    <path
       style="fill:#000000;stroke-width:1.75748"
       d="m 400,760 h 20 V 700 H 80 v 20 h 320 z"
       id="path4" />
    <path
       style="fill:#000000;stroke-width:1.75748"
       d="m 20,600 h 240 v 100 h 20 V 580 H 20 Z"
       id="path5" />
    <path
       style="fill:#000000;stroke-width:1.75748"
       d="M 520,920 V 700 h 20 v 220 z"
       id="path6" />
    <path
       style="fill:#000000;stroke-width:1.75748"
       d="M 620,840 V 820 H 800 V 720 h 360 v 100 h 200 v 20 H 1140 V 740 H 820 v 100 z"
       id="path7" />
    <path
       style="fill:#000000;stroke-width:1.75748"
       d="m 1520,840 v -20 h 280 V 380 h 100 v 20 h -80 v 440 z"
       id="path8" />
    <path
       style="fill:#000000;stroke-width:1.75748"
       d="m 1820,820 h 20 v 20 h -20 z"
       id="path9" />
    <path
       style="fill:#000000;stroke-width:1.75748"
       d="m 1820,460 h 20 v 20 h -20 z"
       id="path10" />
    <path
       style="fill:#000000;stroke-width:1.75748"
       d="m 1820,540 h 20 v 20 h -20 z"
       id="path11" />
    <path
       style="fill:#000000;stroke-width:1.75748"
       d="m 1820,620 h 20 v 20 h -20 z"
       id="path12" />
    <path
       style="fill:#000000;stroke-width:1.75748"
       d="m 1820,720 h 20 v -20 h -20 z"
       id="path13" />
    <path
       style="fill:#000000;stroke-width:1.75748"
       d="m 1520,660 v -20 h 120 V 540 h 20 v 120 z"
       id="path14" />
    <path
       style="fill:#000000;stroke-width:1.75748"
       d="M 1440,660 V 640 H 1320 V 520 h -20 v 140 z"
       id="path15" />
    <path
       style="fill:#000000;stroke-width:1.75748"
       d="M 1660,460 V 320 h -140 v 20 h 120 v 120 z"
       id="path16" />
    <path
       style="fill:#000000;stroke-width:1.75748"
       d="m 1440,340 h -120 v 120 h -20 V 320 h 140 z"
       id="path17" />
    <path
       style="fill:#000000;stroke-width:1.75748"
       d="m 1640,20 v 20 h 20 V 20 Z"
       id="path18" />
    <path
       style="fill:#000000;stroke-width:1.75748"
       d="m 1640,100 v 60 h 260 v -20 h -240 v -40 z"
       id="path19" />
    <path
       style="fill:#000000;stroke-width:1.75748"
       d="M 540,700 V 460 H 300 V 20 h -20 v 460 h 240 v 220 z"
       id="path20" />
    <path
       style="fill:#000000;stroke-width:1.75748"
       d="M 800,500 V 400 H 620 v -20 h 200 v 100 h 320 V 380 h 20 v 120 z"
       id="path21" />
    <path
       style="fill:#000000;stroke-width:1.75748"
       d="m 460,200 v -80 h 340 v 80 z"
       id="path22" />
    <path
       style="fill:#1a1a1a;stroke-width:1.75748"
       d="m 1020,200 v -80 h 380 v 80 z"
       id="path23" />
    <path
       style="fill:#000000;stroke-width:1.75748"
       d="m 160,20 v 200 h 20 V 20 Z"
       id="path24" />
    <path
       style="fill:#000000;stroke-width:1.75748"
       d="m 160,220 h -40 v -20 h 40 z"
       id="path25" />
    <path
       style="fill:#000000;stroke-width:1.75748"
       d="m 120,280 h 60 v 20 h -60 z"
       id="path26" />
    <path
       style="fill:#000000;stroke-width:1.75748"
       d="M 160,300 V 480 H 20 v 20 H 180 V 300 Z"
       id="path27" />
  </g>
</svg>
